<svg id="Warstwa_1" data-name="Warstwa 1" xmlns="http://www.w3.org/2000/svg" viewBox="0 0 181 181"><defs><style>.cls-1{fill:none;}.cls-2{fill:#fff;}</style></defs><title>Ikony2</title><circle class="cls-1" cx="90.5" cy="90.5" r="90.5"/><path class="cls-2" d="M306,587.08a2,2,0,0,1-.88-.21,2,2,0,0,1-1.12-1.8l.36-72.18a2,2,0,0,1,1.14-1.79,2,2,0,0,1,.86-.2,2,2,0,0,1,1.24.44l45.76,36.31a2,2,0,0,1,.75,1.58,2,2,0,0,1-.77,1.57l-46.11,35.85A2,2,0,0,1,306,587.08Z" transform="translate(-213 -458)"/><path class="cls-2" d="M306.4,512.9l45.75,36.32L306,585.08l.36-72.18m0-4a3.91,3.91,0,0,0-1.73.4,4,4,0,0,0-2.27,3.58L302,585.06a4,4,0,0,0,2.24,3.6,3.93,3.93,0,0,0,1.76.42,4,4,0,0,0,2.46-.85l46.11-35.86a4,4,0,0,0,1.54-3.13,4,4,0,0,0-1.51-3.16l-45.75-36.31a4,4,0,0,0-2.49-.87Z" transform="translate(-213 -458)"/><path class="cls-2" d="M289.22,508.9h-.34a4.45,4.45,0,0,0-4.7,4.12l-.36,71.72a4.45,4.45,0,0,0,4.67,4.16h.33a4.45,4.45,0,0,0,4.71-4.11l.35-71.72A4.46,4.46,0,0,0,289.22,508.9Z" transform="translate(-213 -458)"/><path class="cls-2" d="M270.25,508.81h-.36c-2.72,0-5,1.84-5,4.11l-.36,71.73c0,2.27,2.21,4.14,4.94,4.16h.35c2.72,0,5-1.84,5-4.11l.36-71.73C275.19,510.7,273,508.82,270.25,508.81Z" transform="translate(-213 -458)"/></svg>